<svg width="14" height="11" viewBox="0 0 14 11" fill="none" xmlns="http://www.w3.org/2000/svg">
<path d="M13.2304 4.7463C13.3962 4.95302 13.488 5.22159 13.488 5.50006C13.488 5.77853 13.3962 6.0471 13.2304 6.25382C12.1804 7.52509 9.79034 10.0001 7.00034 10.0001C4.21034 10.0001 1.82034 7.52509 0.770334 6.25382C0.604494 6.0471 0.512695 5.77853 0.512695 5.50006C0.512695 5.22159 0.604494 4.95302 0.770334 4.7463C1.82034 3.47503 4.21034 1 7.00034 1C9.79034 1 12.1804 3.47503 13.2304 4.7463Z" stroke="#0C50E9" stroke-linecap="round" stroke-linejoin="round"/>
<path d="M7 7.5C8.10457 7.5 9 6.60457 9 5.5C9 4.39543 8.10457 3.5 7 3.5C5.89543 3.5 5 4.39543 5 5.5C5 6.60457 5.89543 7.5 7 7.5Z" stroke="#0C50E9" stroke-linecap="round" stroke-linejoin="round"/>
</svg>
